<?xml version="1.0" encoding="UTF-8"?>
<svg id="Layer_1" data-name="Layer 1" xmlns="http://www.w3.org/2000/svg" viewBox="0 0 163.89 172.61">
  <defs>
    <style>
      .cls-1 {
        fill: #231f20;
        fill-rule: evenodd;
      }

      .cls-2 {
        fill: none;
        stroke: #231f20;
        stroke-miterlimit: 22.93;
        stroke-width: 6px;
      }
    </style>
  </defs>
  <path class="cls-2" d="m158.61,151.34c0,10.05-7.91,18.27-17.58,18.27H22.86c-9.67,0-17.58-8.22-17.58-18.27m4.61-49.2v-43.84c0-9.44,7.43-17.17,16.52-17.17h111.07c9.08,0,16.52,7.73,16.52,17.17v43.84M60.11,32.02v-10.61m10.82,10.61V13.71m10.18,18.31V0m10.19,32.02V13.71m10.82,18.31v-10.64"/>
  <path class="cls-1" d="m158.27,120.3c-17.39,18.23-37.91,28.15-54.96,23.9-.91,1.56-1.82,3.11-2.73,4.67,12.24,5.58,40.29-4.45,57.69-28.57h0Zm-14.73-66.77c-27.5,6.5-59.43,29.25-58.12,61.41,4.37-20.51,24.46-44.99,56.61-51.58l1.51-9.83h0Zm-2.26,14.71c-25.65,6.41-55.36,27.53-54,58.22,4.08-20.51,22.54-41.88,52.49-48.36l1.51-9.86h0Zm-2.07,13.51c-23.71,6.08-51.26,28.95-50.01,54.64,3.77-16.53,20.89-39.69,48.65-45.82l1.36-8.82h0Zm-2.02,13.15c-21.38,5.57-46.25,28.49-45.12,49.04,3.43-10.96,18.5-36.09,43.96-41.44l1.17-7.6h0Zm-1.92,12.52c-10.61,2.45-46.59,25.96-40.48,45,3.81,11.88,20.48,6.41,27.62,4,16.74-5.66,30.68-17.51,41.49-36.13-13.26,18.52-27.45,27.63-39.09,32.08-5.29,2.02-10.06,3.08-13.97,3.61-.85.12-2.72.36-4.78.28-7.46-.31-9.78-9.25-3.62-17.64,6.9-9.39,17.66-18.71,31.77-24.29l1.06-6.91h0Zm6.82,19.4c-10.76,6.17-21.52,10.49-32.29,8.26-1.18,1.52-2.36,3.04-3.54,4.56,16.47.92,27.19-4.75,35.83-12.82h0Z"/>
  <path class="cls-1" d="m5.62,120.3c17.39,18.23,37.91,28.15,54.96,23.9.91,1.56,1.82,3.11,2.73,4.67-12.24,5.58-40.29-4.45-57.69-28.57h0Zm14.73-66.77c27.5,6.5,59.44,29.25,58.12,61.41-4.37-20.51-24.46-44.99-56.61-51.58l-1.51-9.83h0Zm2.26,14.71c25.65,6.41,55.36,27.53,54.01,58.22-4.08-20.51-22.54-41.88-52.49-48.36l-1.51-9.86h0Zm2.07,13.51c23.71,6.08,51.26,28.95,50.01,54.64-3.77-16.53-20.89-39.69-48.65-45.82l-1.36-8.82h0Zm2.02,13.15c21.38,5.57,46.25,28.49,45.12,49.04-3.43-10.96-18.5-36.09-43.96-41.44l-1.17-7.6h0Zm1.92,12.52c10.61,2.45,46.59,25.96,40.48,45-3.81,11.88-20.48,6.41-27.62,4-16.74-5.66-30.68-17.51-41.5-36.13,13.27,18.52,27.45,27.63,39.09,32.08,5.29,2.02,10.06,3.08,13.97,3.61.85.12,2.71.36,4.78.28,7.46-.31,9.78-9.25,3.62-17.64-6.9-9.39-17.66-18.71-31.78-24.29l-1.06-6.91h0Zm-6.82,19.4c10.76,6.17,21.52,10.49,32.29,8.26,1.18,1.52,2.36,3.04,3.54,4.56-16.47.92-27.19-4.75-35.83-12.82h0Z"/>
</svg>